<mxfile host="app.diagrams.net" modified="2021-07-27T00:49:58.256Z" agent="5.0 (Macintosh; Intel Mac OS X 10_13_2) AppleWebKit/537.36 (KHTML, like Gecko) Chrome/92.0.4515.107 Safari/537.36" etag="a8x3HXb_8QIs0SNMQiiy" version="14.9.2" type="github">
  <diagram id="R2lEEEUBdFMjLlhIrx00" name="Page-1">
    <mxGraphModel dx="837" dy="664" grid="1" gridSize="10" guides="1" tooltips="1" connect="1" arrows="1" fold="1" page="1" pageScale="1" pageWidth="850" pageHeight="1100" math="0" shadow="0" extFonts="Permanent Marker^https://fonts.googleapis.com/css?family=Permanent+Marker">
      <root>
        <mxCell id="0" />
        <mxCell id="1" parent="0" />
        <mxCell id="I35DI13XH5wbBjeCPjyG-1" value="ModeloDormitorio" style="rounded=0;whiteSpace=wrap;html=1;fillColor=none;" vertex="1" parent="1">
          <mxGeometry x="40" y="110" width="130" height="60" as="geometry" />
        </mxCell>
        <mxCell id="I35DI13XH5wbBjeCPjyG-2" value="Montador" style="rounded=0;whiteSpace=wrap;html=1;fillColor=none;" vertex="1" parent="1">
          <mxGeometry x="30" y="360" width="120" height="60" as="geometry" />
        </mxCell>
        <mxCell id="I35DI13XH5wbBjeCPjyG-36" style="edgeStyle=none;orthogonalLoop=1;jettySize=auto;html=1;startArrow=ERmany;startFill=0;endArrow=ERmany;endFill=0;entryX=1;entryY=0.5;entryDx=0;entryDy=0;" edge="1" parent="1" source="I35DI13XH5wbBjeCPjyG-3" target="I35DI13XH5wbBjeCPjyG-35">
          <mxGeometry relative="1" as="geometry" />
        </mxCell>
        <mxCell id="I35DI13XH5wbBjeCPjyG-3" value="Cliente" style="rounded=0;whiteSpace=wrap;html=1;fillColor=none;" vertex="1" parent="1">
          <mxGeometry x="490" y="185" width="120" height="60" as="geometry" />
        </mxCell>
        <mxCell id="I35DI13XH5wbBjeCPjyG-6" value="&lt;span style=&quot;border-bottom: 1px dotted&quot;&gt;CodigoModelo&lt;/span&gt;" style="ellipse;whiteSpace=wrap;html=1;align=center;fillColor=none;" vertex="1" parent="1">
          <mxGeometry x="220" y="50" width="100" height="40" as="geometry" />
        </mxCell>
        <mxCell id="I35DI13XH5wbBjeCPjyG-11" style="edgeStyle=none;orthogonalLoop=1;jettySize=auto;html=1;entryX=0.583;entryY=0.017;entryDx=0;entryDy=0;entryPerimeter=0;startArrow=ERmany;startFill=0;endArrow=ERmany;endFill=0;" edge="1" parent="1" source="I35DI13XH5wbBjeCPjyG-7" target="I35DI13XH5wbBjeCPjyG-2">
          <mxGeometry relative="1" as="geometry" />
        </mxCell>
        <mxCell id="I35DI13XH5wbBjeCPjyG-7" value="Monta" style="shape=rhombus;perimeter=rhombusPerimeter;whiteSpace=wrap;html=1;align=center;fillColor=none;" vertex="1" parent="1">
          <mxGeometry x="40" y="240" width="130" height="70" as="geometry" />
        </mxCell>
        <mxCell id="I35DI13XH5wbBjeCPjyG-9" value="" style="endArrow=ERmany;html=1;entryX=0.5;entryY=1;entryDx=0;entryDy=0;exitX=0.5;exitY=0;exitDx=0;exitDy=0;startArrow=ERmany;startFill=0;endFill=0;" edge="1" parent="1" source="I35DI13XH5wbBjeCPjyG-7" target="I35DI13XH5wbBjeCPjyG-1">
          <mxGeometry width="50" height="50" relative="1" as="geometry">
            <mxPoint x="180" y="360" as="sourcePoint" />
            <mxPoint x="230" y="310" as="targetPoint" />
          </mxGeometry>
        </mxCell>
        <mxCell id="I35DI13XH5wbBjeCPjyG-12" value="2,M" style="text;html=1;align=center;verticalAlign=middle;resizable=0;points=[];autosize=1;strokeColor=none;" vertex="1" parent="1">
          <mxGeometry x="100" y="340" width="40" height="20" as="geometry" />
        </mxCell>
        <mxCell id="I35DI13XH5wbBjeCPjyG-13" value="1,N" style="text;html=1;align=center;verticalAlign=middle;resizable=0;points=[];autosize=1;strokeColor=none;" vertex="1" parent="1">
          <mxGeometry x="105" y="170" width="30" height="20" as="geometry" />
        </mxCell>
        <mxCell id="I35DI13XH5wbBjeCPjyG-18" value="FechaMontaje" style="ellipse;whiteSpace=wrap;html=1;fillColor=none;" vertex="1" parent="1">
          <mxGeometry x="210" y="270" width="80" height="55" as="geometry" />
        </mxCell>
        <mxCell id="I35DI13XH5wbBjeCPjyG-19" value="" style="endArrow=classic;html=1;exitX=1;exitY=0.5;exitDx=0;exitDy=0;entryX=0;entryY=0.5;entryDx=0;entryDy=0;" edge="1" parent="1" source="I35DI13XH5wbBjeCPjyG-7" target="I35DI13XH5wbBjeCPjyG-18">
          <mxGeometry width="50" height="50" relative="1" as="geometry">
            <mxPoint x="180" y="360" as="sourcePoint" />
            <mxPoint x="230" y="310" as="targetPoint" />
          </mxGeometry>
        </mxCell>
        <mxCell id="I35DI13XH5wbBjeCPjyG-20" value="NIF" style="ellipse;whiteSpace=wrap;html=1;fillColor=none;" vertex="1" parent="1">
          <mxGeometry y="500" width="80" height="50" as="geometry" />
        </mxCell>
        <mxCell id="I35DI13XH5wbBjeCPjyG-21" value="Nombre" style="ellipse;whiteSpace=wrap;html=1;fillColor=none;" vertex="1" parent="1">
          <mxGeometry x="90" y="510" width="70" height="55" as="geometry" />
        </mxCell>
        <mxCell id="I35DI13XH5wbBjeCPjyG-22" value="Direccion" style="ellipse;whiteSpace=wrap;html=1;fillColor=none;" vertex="1" parent="1">
          <mxGeometry x="230" y="500" width="80" height="50" as="geometry" />
        </mxCell>
        <mxCell id="I35DI13XH5wbBjeCPjyG-23" value="TelefonoContacto" style="ellipse;whiteSpace=wrap;html=1;fillColor=none;" vertex="1" parent="1">
          <mxGeometry x="260" y="385" width="100" height="70" as="geometry" />
        </mxCell>
        <mxCell id="I35DI13XH5wbBjeCPjyG-25" value="" style="endArrow=classic;html=1;exitX=0.5;exitY=0;exitDx=0;exitDy=0;entryX=0.358;entryY=1.033;entryDx=0;entryDy=0;entryPerimeter=0;" edge="1" parent="1" source="I35DI13XH5wbBjeCPjyG-20" target="I35DI13XH5wbBjeCPjyG-2">
          <mxGeometry width="50" height="50" relative="1" as="geometry">
            <mxPoint x="180" y="360" as="sourcePoint" />
            <mxPoint x="230" y="310" as="targetPoint" />
          </mxGeometry>
        </mxCell>
        <mxCell id="I35DI13XH5wbBjeCPjyG-26" value="" style="endArrow=classic;html=1;exitX=0.5;exitY=0;exitDx=0;exitDy=0;entryX=0.5;entryY=1;entryDx=0;entryDy=0;" edge="1" parent="1" source="I35DI13XH5wbBjeCPjyG-21" target="I35DI13XH5wbBjeCPjyG-2">
          <mxGeometry width="50" height="50" relative="1" as="geometry">
            <mxPoint x="180" y="360" as="sourcePoint" />
            <mxPoint x="230" y="310" as="targetPoint" />
          </mxGeometry>
        </mxCell>
        <mxCell id="I35DI13XH5wbBjeCPjyG-27" value="" style="endArrow=classic;html=1;exitX=0.5;exitY=0;exitDx=0;exitDy=0;entryX=0.75;entryY=1;entryDx=0;entryDy=0;" edge="1" parent="1" source="I35DI13XH5wbBjeCPjyG-22" target="I35DI13XH5wbBjeCPjyG-2">
          <mxGeometry width="50" height="50" relative="1" as="geometry">
            <mxPoint x="180" y="360" as="sourcePoint" />
            <mxPoint x="230" y="310" as="targetPoint" />
          </mxGeometry>
        </mxCell>
        <mxCell id="I35DI13XH5wbBjeCPjyG-28" value="" style="endArrow=classic;html=1;exitX=0;exitY=0;exitDx=0;exitDy=0;entryX=1;entryY=0.5;entryDx=0;entryDy=0;" edge="1" parent="1" source="I35DI13XH5wbBjeCPjyG-23" target="I35DI13XH5wbBjeCPjyG-2">
          <mxGeometry width="50" height="50" relative="1" as="geometry">
            <mxPoint x="180" y="360" as="sourcePoint" />
            <mxPoint x="230" y="310" as="targetPoint" />
          </mxGeometry>
        </mxCell>
        <mxCell id="I35DI13XH5wbBjeCPjyG-30" value="" style="endArrow=ERmany;html=1;entryX=1.031;entryY=0.617;entryDx=0;entryDy=0;entryPerimeter=0;startArrow=ERmany;startFill=0;endFill=0;" edge="1" parent="1" source="I35DI13XH5wbBjeCPjyG-35" target="I35DI13XH5wbBjeCPjyG-1">
          <mxGeometry width="50" height="50" relative="1" as="geometry">
            <mxPoint x="280" y="360" as="sourcePoint" />
            <mxPoint x="330" y="310" as="targetPoint" />
          </mxGeometry>
        </mxCell>
        <mxCell id="I35DI13XH5wbBjeCPjyG-31" value="1,N" style="text;html=1;align=center;verticalAlign=middle;resizable=0;points=[];autosize=1;strokeColor=none;" vertex="1" parent="1">
          <mxGeometry x="175" y="130" width="30" height="20" as="geometry" />
        </mxCell>
        <mxCell id="I35DI13XH5wbBjeCPjyG-32" value="1,M" style="text;html=1;align=center;verticalAlign=middle;resizable=0;points=[];autosize=1;strokeColor=none;" vertex="1" parent="1">
          <mxGeometry x="445" y="200" width="40" height="20" as="geometry" />
        </mxCell>
        <mxCell id="I35DI13XH5wbBjeCPjyG-33" value="NIF" style="ellipse;whiteSpace=wrap;html=1;fillColor=none;" vertex="1" parent="1">
          <mxGeometry x="390" y="70" width="80" height="50" as="geometry" />
        </mxCell>
        <mxCell id="I35DI13XH5wbBjeCPjyG-34" value="Nombre" style="ellipse;whiteSpace=wrap;html=1;fillColor=none;" vertex="1" parent="1">
          <mxGeometry x="620" y="30" width="70" height="55" as="geometry" />
        </mxCell>
        <mxCell id="I35DI13XH5wbBjeCPjyG-35" value="Compra" style="rhombus;whiteSpace=wrap;html=1;fillColor=none;" vertex="1" parent="1">
          <mxGeometry x="265" y="120" width="80" height="60" as="geometry" />
        </mxCell>
        <mxCell id="I35DI13XH5wbBjeCPjyG-37" value="Direccion" style="ellipse;whiteSpace=wrap;html=1;fillColor=none;" vertex="1" parent="1">
          <mxGeometry x="680" y="185" width="80" height="50" as="geometry" />
        </mxCell>
        <mxCell id="I35DI13XH5wbBjeCPjyG-38" value="TelefonoContacto" style="ellipse;whiteSpace=wrap;html=1;fillColor=none;" vertex="1" parent="1">
          <mxGeometry x="605" y="315" width="100" height="70" as="geometry" />
        </mxCell>
        <mxCell id="I35DI13XH5wbBjeCPjyG-39" value="FechaCompra" style="ellipse;whiteSpace=wrap;html=1;fillColor=none;" vertex="1" parent="1">
          <mxGeometry x="240" y="200" width="90" height="50" as="geometry" />
        </mxCell>
        <mxCell id="I35DI13XH5wbBjeCPjyG-43" value="" style="endArrow=classic;html=1;entryX=0.383;entryY=0;entryDx=0;entryDy=0;entryPerimeter=0;exitX=0.5;exitY=1;exitDx=0;exitDy=0;" edge="1" parent="1" source="I35DI13XH5wbBjeCPjyG-33" target="I35DI13XH5wbBjeCPjyG-3">
          <mxGeometry width="50" height="50" relative="1" as="geometry">
            <mxPoint x="280" y="360" as="sourcePoint" />
            <mxPoint x="330" y="310" as="targetPoint" />
          </mxGeometry>
        </mxCell>
        <mxCell id="I35DI13XH5wbBjeCPjyG-44" value="" style="endArrow=classic;html=1;exitX=0.5;exitY=1;exitDx=0;exitDy=0;entryX=0.75;entryY=0;entryDx=0;entryDy=0;" edge="1" parent="1" source="I35DI13XH5wbBjeCPjyG-34" target="I35DI13XH5wbBjeCPjyG-3">
          <mxGeometry width="50" height="50" relative="1" as="geometry">
            <mxPoint x="280" y="360" as="sourcePoint" />
            <mxPoint x="480" y="180" as="targetPoint" />
          </mxGeometry>
        </mxCell>
        <mxCell id="I35DI13XH5wbBjeCPjyG-45" value="" style="endArrow=classic;html=1;entryX=1;entryY=0.5;entryDx=0;entryDy=0;exitX=0;exitY=0.5;exitDx=0;exitDy=0;" edge="1" parent="1" source="I35DI13XH5wbBjeCPjyG-37" target="I35DI13XH5wbBjeCPjyG-3">
          <mxGeometry width="50" height="50" relative="1" as="geometry">
            <mxPoint x="280" y="360" as="sourcePoint" />
            <mxPoint x="330" y="310" as="targetPoint" />
          </mxGeometry>
        </mxCell>
        <mxCell id="I35DI13XH5wbBjeCPjyG-46" value="" style="endArrow=classic;html=1;entryX=0.5;entryY=1;entryDx=0;entryDy=0;exitX=0.5;exitY=0;exitDx=0;exitDy=0;" edge="1" parent="1" source="I35DI13XH5wbBjeCPjyG-38" target="I35DI13XH5wbBjeCPjyG-3">
          <mxGeometry width="50" height="50" relative="1" as="geometry">
            <mxPoint x="280" y="360" as="sourcePoint" />
            <mxPoint x="330" y="310" as="targetPoint" />
          </mxGeometry>
        </mxCell>
        <mxCell id="I35DI13XH5wbBjeCPjyG-47" value="" style="endArrow=classic;html=1;entryX=0;entryY=0.5;entryDx=0;entryDy=0;exitX=0.608;exitY=-0.05;exitDx=0;exitDy=0;exitPerimeter=0;" edge="1" parent="1" source="I35DI13XH5wbBjeCPjyG-1" target="I35DI13XH5wbBjeCPjyG-6">
          <mxGeometry width="50" height="50" relative="1" as="geometry">
            <mxPoint x="280" y="360" as="sourcePoint" />
            <mxPoint x="330" y="310" as="targetPoint" />
          </mxGeometry>
        </mxCell>
        <mxCell id="I35DI13XH5wbBjeCPjyG-48" value="" style="endArrow=classic;html=1;exitX=0.5;exitY=1;exitDx=0;exitDy=0;entryX=0.5;entryY=0;entryDx=0;entryDy=0;" edge="1" parent="1" source="I35DI13XH5wbBjeCPjyG-35" target="I35DI13XH5wbBjeCPjyG-39">
          <mxGeometry width="50" height="50" relative="1" as="geometry">
            <mxPoint x="490" y="380" as="sourcePoint" />
            <mxPoint x="540" y="330" as="targetPoint" />
          </mxGeometry>
        </mxCell>
      </root>
    </mxGraphModel>
  </diagram>
</mxfile>
